<svg width="900" height="220" xmlns="http://www.w3.org/2000/svg">
  <defs>
    <linearGradient id="bg" x1="0" y1="0" x2="1" y2="1">
      <stop offset="0%" stop-color="#07080A"/>
      <stop offset="50%" stop-color="#0D0F12"/>
      <stop offset="100%" stop-color="#141720"/>
    </linearGradient>
    <radialGradient id="glow" cx="15%" cy="50%">
      <stop offset="0%" stop-color="#F0A500" stop-opacity="0.06"/>
      <stop offset="100%" stop-color="#07080A" stop-opacity="0"/>
    </radialGradient>
  </defs>
  <rect width="900" height="220" fill="url(#bg)"/>
  <rect width="900" height="220" fill="url(#glow)"/>
  <rect x="0" y="0" width="900" height="3" fill="#F0A500"/>
  <rect x="0" y="3" width="900" height="1.5" fill="#F87171" opacity="0.6"/>
  <!-- Eye icon -->
  <circle cx="52" cy="110" r="36" fill="none" stroke="#F0A500" stroke-width="2" opacity="0.15"/>
  <circle cx="52" cy="110" r="16" fill="#F0A500" opacity="0.08"/>
  <circle cx="52" cy="110" r="6" fill="#F0A500" opacity="0.5"/>
  <circle cx="54" cy="108" r="2" fill="#F0A500"/>
  <!-- Crosshairs -->
  <line x1="52" y1="70" x2="52" y2="86" stroke="#F0A500" stroke-width="1" opacity="0.15"/>
  <line x1="52" y1="134" x2="52" y2="150" stroke="#F0A500" stroke-width="1" opacity="0.15"/>
  <line x1="12" y1="110" x2="28" y2="110" stroke="#F0A500" stroke-width="1" opacity="0.15"/>
  <line x1="76" y1="110" x2="92" y2="110" stroke="#F0A500" stroke-width="1" opacity="0.15"/>
  <!-- Title -->
  <text x="110" y="72" font-family="monospace" font-size="10" fill="#F0A500" letter-spacing="4" font-weight="600">OSINT INTELLIGENCE PLATFORM</text>
  <text x="110" y="115" font-family="monospace" font-size="52" fill="#FFFFFF" font-weight="800" letter-spacing="-1">PublicEye</text>
  <text x="110" y="140" font-family="system-ui,sans-serif" font-size="13" fill="#A1A1AA">20 modules · 13 OSINT categories · Live APIs · Zero backend · Single HTML file</text>
  <!-- Module tags -->
  <rect x="110" y="155" width="55" height="18" rx="3" fill="#F0A500" opacity="0.08" stroke="#F0A500" stroke-width="0.5" opacity="0.3"/>
  <text x="137" y="167" font-family="monospace" font-size="7" fill="#F0A500" text-anchor="middle">DNS</text>
  <rect x="172" y="155" width="68" height="18" rx="3" fill="#22D3EE" opacity="0.06" stroke="#22D3EE" stroke-width="0.5" opacity="0.3"/>
  <text x="206" y="167" font-family="monospace" font-size="7" fill="#22D3EE" text-anchor="middle">SHODAN</text>
  <rect x="247" y="155" width="68" height="18" rx="3" fill="#4ADE80" opacity="0.06" stroke="#4ADE80" stroke-width="0.5" opacity="0.3"/>
  <text x="281" y="167" font-family="monospace" font-size="7" fill="#4ADE80" text-anchor="middle">EMAIL</text>
  <rect x="322" y="155" width="75" height="18" rx="3" fill="#C084FC" opacity="0.06" stroke="#C084FC" stroke-width="0.5" opacity="0.3"/>
  <text x="359" y="167" font-family="monospace" font-size="7" fill="#C084FC" text-anchor="middle">TELEGRAM</text>
  <rect x="404" y="155" width="75" height="18" rx="3" fill="#F87171" opacity="0.06" stroke="#F87171" stroke-width="0.5" opacity="0.3"/>
  <text x="441" y="167" font-family="monospace" font-size="7" fill="#F87171" text-anchor="middle">DARK WEB</text>
  <rect x="486" y="155" width="62" height="18" rx="3" fill="#60A5FA" opacity="0.06" stroke="#60A5FA" stroke-width="0.5" opacity="0.3"/>
  <text x="517" y="167" font-family="monospace" font-size="7" fill="#60A5FA" text-anchor="middle">CRYPTO</text>
  <rect x="555" y="155" width="62" height="18" rx="3" fill="#F0A500" opacity="0.06" stroke="#F0A500" stroke-width="0.5" opacity="0.3"/>
  <text x="586" y="167" font-family="monospace" font-size="7" fill="#F0A500" text-anchor="middle">DORKS</text>
  <rect x="624" y="155" width="80" height="18" rx="3" fill="#4ADE80" opacity="0.06" stroke="#4ADE80" stroke-width="0.5" opacity="0.3"/>
  <text x="664" y="167" font-family="monospace" font-size="7" fill="#4ADE80" text-anchor="middle">CERTSTREAM</text>
  <!-- Bottom info -->
  <text x="110" y="195" font-family="monospace" font-size="8" fill="#52525B" letter-spacing="0.3">dns.google · crt.sh · ipwho.is · internetdb.shodan.io · rdap.org · blockchain.info · certstream.calidog.io · api.github.com</text>
  <text x="110" y="210" font-family="monospace" font-size="8" fill="#52525B" letter-spacing="0.3">Ali AlEnezi · @SiteQ8 · github.com/SiteQ8/PublicEye · MIT License</text>
  <!-- Right side: mini UI mockup -->
  <g transform="translate(720,35)" opacity="0.12">
    <rect x="0" y="0" width="160" height="150" rx="6" fill="none" stroke="#F0A500" stroke-width="0.8"/>
    <!-- sidebar -->
    <rect x="0" y="0" width="40" height="150" rx="6" fill="#F0A500" opacity="0.06"/>
    <circle cx="20" cy="14" r="4" fill="#F0A500" opacity="0.5"/>
    <rect x="8" y="28" width="24" height="2" rx="1" fill="#F0A500" opacity="0.4"/>
    <rect x="8" y="38" width="20" height="2" rx="1" fill="#F0A500" opacity="0.3"/>
    <rect x="8" y="48" width="22" height="2" rx="1" fill="#F0A500" opacity="0.3"/>
    <rect x="8" y="58" width="18" height="2" rx="1" fill="#F0A500" opacity="0.3"/>
    <rect x="8" y="72" width="24" height="2" rx="1" fill="#F0A500" opacity="0.2"/>
    <rect x="8" y="82" width="20" height="2" rx="1" fill="#F0A500" opacity="0.2"/>
    <rect x="8" y="92" width="22" height="2" rx="1" fill="#F0A500" opacity="0.2"/>
    <rect x="8" y="106" width="18" height="2" rx="1" fill="#F0A500" opacity="0.2"/>
    <rect x="8" y="116" width="24" height="2" rx="1" fill="#F0A500" opacity="0.2"/>
    <!-- content: metric cards -->
    <rect x="48" y="8" width="28" height="22" rx="3" fill="none" stroke="#F0A500" stroke-width="0.5"/>
    <rect x="80" y="8" width="28" height="22" rx="3" fill="none" stroke="#22D3EE" stroke-width="0.5"/>
    <rect x="112" y="8" width="28" height="22" rx="3" fill="none" stroke="#F87171" stroke-width="0.5"/>
    <!-- content: table area -->
    <rect x="48" y="38" width="93" height="60" rx="3" fill="none" stroke="#F0A500" stroke-width="0.4"/>
    <line x1="48" y1="48" x2="141" y2="48" stroke="#F0A500" stroke-width="0.3"/>
    <line x1="48" y1="58" x2="141" y2="58" stroke="#F0A500" stroke-width="0.2"/>
    <line x1="48" y1="68" x2="141" y2="68" stroke="#F0A500" stroke-width="0.2"/>
    <line x1="48" y1="78" x2="141" y2="78" stroke="#F0A500" stroke-width="0.2"/>
    <!-- content: console -->
    <rect x="48" y="104" width="93" height="38" rx="3" fill="#141720" stroke="#F0A500" stroke-width="0.3"/>
    <rect x="48" y="104" width="93" height="8" rx="3" fill="#1A1D26"/>
    <circle cx="54" cy="108" r="1.5" fill="#F87171"/><circle cx="59" cy="108" r="1.5" fill="#F0A500"/><circle cx="64" cy="108" r="1.5" fill="#4ADE80"/>
  </g>
  <rect x="0" y="217" width="900" height="3" fill="#F0A500" opacity="0.1"/>
</svg>
