<svg width="800" height="380" xmlns="http://www.w3.org/2000/svg">
  <rect width="800" height="380" fill="#07080A"/>
  <!-- Simplified sidebar -->
  <rect x="0" y="0" width="140" height="380" fill="#0D0F12"/><rect x="139" y="0" width="1" height="380" fill="#1E2230"/>
  <circle cx="22" cy="22" r="10" fill="none" stroke="#F0A500" stroke-width="1.5"/><circle cx="22" cy="22" r="1.8" fill="#F0A500"/>
  <text x="38" y="26" font-family="monospace" font-size="10" fill="#F0A500" font-weight="800">PublicEye</text>
  <!-- Top bar -->
  <rect x="140" y="0" width="660" height="32" fill="#0D0F12"/><rect x="140" y="31" width="660" height="1" fill="#1E2230"/>
  <text x="155" y="21" font-family="system-ui" font-size="11" fill="#E4E4E7" font-weight="700">Domain Recon</text>
  <circle cx="700" cy="16" r="3" fill="#4ADE80"/>
  <!-- Scan box -->
  <rect x="155" y="44" width="618" height="68" rx="6" fill="#0D0F12" stroke="#1E2230" stroke-width="0.8"/>
  <text x="170" y="60" font-family="monospace" font-size="7" fill="#F0A500" letter-spacing="1">TARGET</text>
  <rect x="170" y="66" width="480" height="26" rx="5" fill="#07080A" stroke="#1E2230" stroke-width="1.5"/>
  <text x="185" y="83" font-family="monospace" font-size="10" fill="#E4E4E7">sans.org</text>
  <rect x="658" y="66" width="60" height="26" rx="5" fill="#F0A500"/>
  <text x="688" y="83" font-family="monospace" font-size="9" fill="#000" font-weight="700" text-anchor="middle">⚡ SCAN</text>
  <text x="170" y="104" font-family="monospace" font-size="7" fill="#F0A500" letter-spacing="1">MODULES</text>
  <!-- Module chips -->
  <rect x="170" y="94" width="38" height="14" rx="3" fill="#F0A500" opacity="0.05" stroke="#F0A500" stroke-width="0.8"/><text x="189" y="104" font-family="monospace" font-size="6" fill="#F0A500" text-anchor="middle">DNS</text>
  <rect x="214" y="94" width="65" height="14" rx="3" fill="#F0A500" opacity="0.05" stroke="#F0A500" stroke-width="0.8"/><text x="246" y="104" font-family="monospace" font-size="6" fill="#F0A500" text-anchor="middle">Subdomains</text>
  <rect x="285" y="94" width="45" height="14" rx="3" fill="#F0A500" opacity="0.05" stroke="#F0A500" stroke-width="0.8"/><text x="307" y="104" font-family="monospace" font-size="6" fill="#F0A500" text-anchor="middle">IP/Geo</text>
  <rect x="336" y="94" width="50" height="14" rx="3" fill="#F0A500" opacity="0.05" stroke="#F0A500" stroke-width="0.8"/><text x="361" y="104" font-family="monospace" font-size="6" fill="#F0A500" text-anchor="middle">Shodan</text>
  <rect x="392" y="94" width="42" height="14" rx="3" fill="#F0A500" opacity="0.05" stroke="#F0A500" stroke-width="0.8"/><text x="413" y="104" font-family="monospace" font-size="6" fill="#F0A500" text-anchor="middle">Email</text>
  <rect x="440" y="94" width="48" height="14" rx="3" fill="#F0A500" opacity="0.05" stroke="#F0A500" stroke-width="0.8"/><text x="464" y="104" font-family="monospace" font-size="6" fill="#F0A500" text-anchor="middle">WHOIS</text>
  <rect x="494" y="94" width="55" height="14" rx="3" fill="#F0A500" opacity="0.05" stroke="#F0A500" stroke-width="0.8"/><text x="521" y="104" font-family="monospace" font-size="6" fill="#F0A500" text-anchor="middle">Headers</text>
  <!-- Console -->
  <rect x="155" y="120" width="618" height="140" rx="6" fill="#0D0F12" stroke="#1E2230" stroke-width="0.8"/>
  <rect x="155" y="120" width="618" height="18" rx="6" fill="#141720"/>
  <circle cx="167" cy="129" r="3" fill="#F87171"/><circle cx="176" cy="129" r="3" fill="#F0A500"/><circle cx="185" cy="129" r="3" fill="#4ADE80"/>
  <text x="720" y="133" font-family="monospace" font-size="6" fill="#52525B" text-anchor="end">Complete — 169 findings</text>
  <!-- Console output -->
  <text x="165" y="152" font-family="monospace" font-size="7" fill="#F0A500">PublicEye v3.0 — LIVE SCAN</text>
  <text x="165" y="164" font-family="monospace" font-size="7" fill="#22D3EE">[*] Target: sans.org</text>
  <text x="165" y="176" font-family="monospace" font-size="7" fill="#22D3EE">[*] Modules: 7</text>
  <text x="165" y="192" font-family="monospace" font-size="7" fill="#F0A500">[DNS] dns.google...</text>
  <text x="165" y="204" font-family="monospace" font-size="7" fill="#4ADE80">  A → 45.60.31.34</text>
  <text x="165" y="216" font-family="monospace" font-size="7" fill="#4ADE80">  MX → mxa-002c1802.gslb.pphosted.com</text>
  <text x="165" y="228" font-family="monospace" font-size="7" fill="#4ADE80">  ✓ 41 records</text>
  <text x="165" y="244" font-family="monospace" font-size="7" fill="#4ADE80" font-weight="700">✓ COMPLETE — 169 findings</text>
  <!-- Result cards -->
  <rect x="155" y="270" width="304" height="100" rx="6" fill="#1A1D26" stroke="#1E2230" stroke-width="0.8"/>
  <text x="170" y="288" font-family="monospace" font-size="7" fill="#F0A500" font-weight="700">DNS RECORDS</text>
  <text x="260" y="288" font-family="monospace" font-size="5" fill="#F0A500">41</text>
  <text x="170" y="304" font-family="monospace" font-size="7" fill="#52525B">A</text><text x="300" y="304" font-family="monospace" font-size="7" fill="#E4E4E7" text-anchor="end">45.60.31.34</text>
  <line x1="170" y1="310" x2="440" y2="310" stroke="#1E2230" stroke-width="0.5"/>
  <text x="170" y="322" font-family="monospace" font-size="7" fill="#52525B">MX</text><text x="440" y="322" font-family="monospace" font-size="6" fill="#4ADE80" text-anchor="end">mxa-002c1802.gslb.pphosted.com</text>
  <line x1="170" y1="328" x2="440" y2="328" stroke="#1E2230" stroke-width="0.5"/>
  <text x="170" y="340" font-family="monospace" font-size="7" fill="#52525B">TXT</text><text x="440" y="340" font-family="monospace" font-size="6" fill="#4ADE80" text-anchor="end">v=spf1 include:...vali.email ~all</text>
  <text x="170" y="358" font-family="monospace" font-size="7" fill="#52525B">CAA</text><text x="440" y="358" font-family="monospace" font-size="6" fill="#4ADE80" text-anchor="end">issue "globalsign.com"</text>
  <!-- Shodan card -->
  <rect x="469" y="270" width="304" height="100" rx="6" fill="#1A1D26" stroke="#1E2230" stroke-width="0.8"/>
  <text x="484" y="288" font-family="monospace" font-size="7" fill="#F0A500" font-weight="700">SHODAN INTERNETDB</text>
  <text x="484" y="304" font-family="monospace" font-size="7" fill="#52525B">Ports</text><text x="754" y="304" font-family="monospace" font-size="7" fill="#F0A500" text-anchor="end">642 open</text>
  <line x1="484" y1="310" x2="754" y2="310" stroke="#1E2230" stroke-width="0.5"/>
  <text x="484" y="322" font-family="monospace" font-size="7" fill="#52525B">Hosts</text><text x="754" y="322" font-family="monospace" font-size="7" fill="#E4E4E7" text-anchor="end">sans.org, giac.org, isc.sans.edu</text>
  <line x1="484" y1="328" x2="754" y2="328" stroke="#1E2230" stroke-width="0.5"/>
  <text x="484" y="340" font-family="monospace" font-size="7" fill="#52525B">CPE</text><text x="754" y="340" font-family="monospace" font-size="7" fill="#E4E4E7" text-anchor="end">cpe:/a:imperva:incapsula</text>
  <line x1="484" y1="346" x2="754" y2="346" stroke="#1E2230" stroke-width="0.5"/>
  <text x="484" y="358" font-family="monospace" font-size="7" fill="#52525B">Vulns</text><text x="754" y="358" font-family="monospace" font-size="7" fill="#4ADE80" text-anchor="end">None</text>
</svg>
